<?xml version="1.0" encoding="UTF-8" standalone="no"?>
<svg 
   width="228pt"
   height="56.879997pt"
   viewBox="0 0 228 56.879997"
   version="1.2"
   id="svg65"
   xmlns="http://www.w3.org/2000/svg"
   xmlns:svg="http://www.w3.org/2000/svg" content="%3Cmxfile%20host%3D%22app.diagrams.net%22%20modified%3D%222022-03-07T10%3A46%3A59.060Z%22%20agent%3D%225.0%20(X11)%22%20etag%3D%22YmicWAPRjHKTiGWCQDa2%22%20version%3D%2216.6.6%22%20type%3D%22device%22%3E%3Cdiagram%20id%3D%22QM5lG4YiWIeBzos5zHqo%22%20name%3D%22Page-1%22%3E7Vltj6IwEP41fFxDW1H8uL7smVwuMWfu7ZNppAIRKKn1bX%2F9FWjlzV3RQ9HdS9YNM0ynZZ5nhk7R0MDffWE4dL5Ri3ga1K2dhoYahG2zI%2F5Hin2iQEgqbOZaiQqkiqn7SqRSl9q1a5FVzpBT6nE3zCvnNAjInOd0mDG6zZstqJefNcS2nFFPFdM59kjJ7JdrcSfRmkbGekxc21EzA13e8bEyli5WDrboNjMXGmlowCjlyZW%2FGxAvip2KS%2BLo5Y27h4UxEvAqA4yvnR9LMxxvZt%2F11%2FAFzyZT%2FoQSLxvsreUDy8XyvYoACaznKJBCCmgglH2H%2B56QgLhkdB1YJJpBF9KKY8YLxok%2FYtnFgKbrVgGiazYn7yw2EzZBN0J9wtleDNymwChcnAwmSseIh7m7ya8DS37YB3eHGSbUFSuEuqSyKd3sFUH1vIdk%2BXJQFoeCHwRPOBJBtAkvORIXmadOVTHMZ0DerhVyASLb%2F46EFjSU%2FEeaxsJwlzUd7qVUnRdJPN7jRZO0AEVeGBfyAhZ5UXR0ZV4Yj8WLpvA%2BCdPFeMPb4t2pFe97h%2B1QZf8VtpKjG5fv7ueCrV0XbEVHN4bNvAQ2C6%2BcGCqQxzDSTzDnhAWxBuoo3n0xujzsUuHDYW3UtME6tVG7MtK9%2F0ifQvrIFrjV6VyGNirTpuTryoirXvWT1GTYqWsHVHR040wF9Xa%2F944bqmsLVHJ0a9zgadzyJbJQVVcODiM7f2dHh1athUe3cwcz3vKJWPmMstmKUxYfDfW3jsvJNMTx0cRW2MfAc4EEjWryUy%2FFfkMYJ7tz0ZcDevmgKjHDDXiEG8WmIUuDXNzPDnIz%2FUGFdh802u9%2FlGMgUKGReLwkAujOsuiifX9TB6yqsJ5OwW6TKQjAB8lBNf0d5eDCc8Of0nsN%2BXhvbzX1BA%2BSj92K%2BdjslxFQV%2BfeeD4eIUdb%2FD1rxkjr9pcaHIhfH2jdYXKjxJ2UHuCNjMtwqY73XaGFMsv5ZR4Bvn21912F048GKtpY5mvd1c24VXUTYvqlOKF7%2Brkdjf4C%3C%2Fdiagram%3E%3C%2Fmxfile%3E">
  <defs
     id="defs8">
    <clipPath
       id="clip1">
      <path
         d="M 0 0 L 228 0 L 228 56.878906 L 0 56.878906 Z M 0 0 "
         id="path2" />
    </clipPath>
    <clipPath
       id="clip2">
      <path
         d="M 99 11 L 108 11 L 108 21 L 99 21 Z M 99 11 "
         id="path5" />
    </clipPath>
  </defs>
  <g
     id="surface1">
    <g
       clip-path="url(#clip1)"
       clip-rule="nonzero"
       id="g12">
      <path
         id="rect10"
         style="fill:#ffffff"
         d="M 0,0 H 228 V 56.879997 H 0 Z" />
    </g>
    <path
       style="fill:none;stroke:#000000;stroke-width:1;stroke-linecap:butt;stroke-linejoin:miter;stroke-miterlimit:10;stroke-opacity:1"
       d="m 261.00001,21.000001 h 10"
       transform="matrix(0.75,0,0,0.75,0.375,0.375)"
       id="path14" />
    <path
       style="fill:none;stroke:#000000;stroke-width:1;stroke-linecap:butt;stroke-linejoin:miter;stroke-miterlimit:10;stroke-opacity:1"
       d="M 131,71.000003 V 41.000002"
       transform="matrix(0.75,0,0,0.75,0.375,0.375)"
       id="path16" />
    <path
       style="fill:none;stroke:#000000;stroke-width:1;stroke-linecap:butt;stroke-linejoin:miter;stroke-miterlimit:10;stroke-opacity:1"
       d="M 171.00001,71.000003 V 41.000002"
       transform="matrix(0.75,0,0,0.75,0.375,0.375)"
       id="path18" />
    <path
       style="fill:none;stroke:#000000;stroke-width:1;stroke-linecap:butt;stroke-linejoin:miter;stroke-miterlimit:10;stroke-opacity:1"
       d="M 51.000002,71.000003 V 21.000001"
       transform="matrix(0.75,0,0,0.75,0.375,0.375)"
       id="path20" />
    <path
       style="fill:none;stroke:#000000;stroke-width:1;stroke-linecap:butt;stroke-linejoin:miter;stroke-miterlimit:10;stroke-opacity:1"
       d="M 91.000004,71.000003 V 21.000001"
       transform="matrix(0.75,0,0,0.75,0.375,0.375)"
       id="path22" />
    <path
       style="fill:#000000;fill-opacity:1;fill-rule:nonzero;stroke:none"
       d="m 0.75,15 h 1.5 v 1.5 h -1.5 m 6,-1.5 h 1.5 v 1.5 h -1.5 m 6,-1.5 h 1.5 v 1.5 h -1.5 m 6,-1.5 h 1.5 v 1.5 h -1.5"
       id="path24" />
    <path
       style="fill:#000000;fill-opacity:1;fill-rule:nonzero;stroke:none"
       d="m 203.25,15.496094 h 1.5 v 1.5 h -1.5 m 6,-1.5 h 1.5 v 1.5 h -1.5 m 6,-1.5 h 1.5 v 1.5 h -1.5 m 6,-1.5 h 1.5 v 1.5 h -1.5"
       id="path26" />
    <path
       style="fill:none;stroke:#000000;stroke-width:1;stroke-linecap:butt;stroke-linejoin:miter;stroke-miterlimit:10;stroke-opacity:1"
       d="M 211.00001,71.000003 V 21.000001"
       transform="matrix(0.75,0,0,0.75,0.375,0.375)"
       id="path28" />
    <path
       style="fill:none;stroke:#000000;stroke-width:1;stroke-linecap:butt;stroke-linejoin:miter;stroke-miterlimit:10;stroke-opacity:1"
       d="M 251.00001,71.000003 V 21.000001"
       transform="matrix(0.75,0,0,0.75,0.375,0.375)"
       id="path30" />
    <path
       style="fill:#ffffff;fill-opacity:1;fill-rule:nonzero;stroke:#000000;stroke-width:1;stroke-linecap:butt;stroke-linejoin:miter;stroke-miterlimit:10;stroke-opacity:1"
       d="m 41.739582,11.000002 h 18.520834 c 0.25,0.02083 0.46875,0.229166 0.598959,0.5625 0.130208,0.328125 0.140625,0.739583 0.03125,1.078125 l -9.468751,18.078126 c -0.25,0.28125 -0.59375,0.28125 -0.84375,0 l -9.46875,-18.078126 c -0.109375,-0.338542 -0.09896,-0.75 0.03125,-1.078125 0.130208,-0.333334 0.348958,-0.541667 0.598958,-0.5625 z m 0,0"
       transform="matrix(0,-0.75,0.75,0,22.874999,54.374998)"
       id="path32" />
    <path
       style="fill:none;stroke:#000000;stroke-width:1;stroke-linecap:butt;stroke-linejoin:miter;stroke-miterlimit:10;stroke-opacity:1"
       d="M 31.000001,21.000001 H 41.000002"
       transform="matrix(0.75,0,0,0.75,0.375,0.375)"
       id="path34" />
    <path
       style="fill:#ffffff;fill-opacity:1;fill-rule:nonzero;stroke:#000000;stroke-width:1;stroke-linecap:butt;stroke-linejoin:miter;stroke-miterlimit:10;stroke-opacity:1"
       d="m 81.739582,11.000003 h 18.520838 c 0.25,0.02083 0.46875,0.229167 0.59896,0.5625 0.1302,0.328125 0.14062,0.739584 0.0312,1.078125 l -9.468756,18.078126 c -0.25,0.28125 -0.59375,0.28125 -0.84375,0 l -9.46875,-18.078126 c -0.109375,-0.338541 -0.09896,-0.75 0.03125,-1.078125 0.130208,-0.333333 0.348958,-0.541666 0.598958,-0.5625 z m 0,0"
       transform="matrix(0,-0.75,0.75,0,52.874998,84.374996)"
       id="path36" />
    <path
       style="fill:none;stroke:#000000;stroke-width:1;stroke-linecap:butt;stroke-linejoin:miter;stroke-miterlimit:10;stroke-opacity:1"
       d="m 61.000003,21.000001 h 20"
       transform="matrix(0.75,0,0,0.75,0.375,0.375)"
       id="path38" />
    <path
       style="fill:#ffffff;fill-opacity:1;fill-rule:nonzero;stroke:#000000;stroke-width:1;stroke-linecap:butt;stroke-linejoin:miter;stroke-miterlimit:10;stroke-opacity:1"
       d="m 241.73958,10.999989 h 18.52084 c 0.25,0.02083 0.46875,0.229167 0.59895,0.5625 0.13021,0.328125 0.14063,0.739583 0.0312,1.078125 l -9.46875,18.078126 c -0.25,0.28125 -0.59375,0.28125 -0.84375,0 l -9.46875,-18.078126 c -0.10937,-0.338542 -0.099,-0.75 0.0312,-1.078125 0.13021,-0.333333 0.34896,-0.541667 0.59896,-0.5625 z m 0,0"
       transform="matrix(0,-0.75,-0.75,0,204.37499,204.37499)"
       id="path40" />
    <path
       style="fill:none;stroke:#000000;stroke-width:1;stroke-linecap:butt;stroke-linejoin:miter;stroke-miterlimit:10;stroke-opacity:1"
       d="M 101,21.000001 H 241.00001"
       transform="matrix(0.75,0,0,0.75,0.375,0.375)"
       id="path42" />
    <path
       style="fill:#ffffff;fill-opacity:1;fill-rule:nonzero;stroke:#000000;stroke-width:1;stroke-linecap:butt;stroke-linejoin:miter;stroke-miterlimit:4;stroke-opacity:1"
       d="m 117.00001,1 h 68 c 0.39583,0 0.78646,0.036458 1.17187,0.114583 0.38542,0.078125 0.76042,0.192709 1.125,0.34375 0.36459,0.151042 0.70834,0.333334 1.03646,0.552084 0.32813,0.21875 0.63021,0.46875 0.91146,0.744791 0.27604,0.28125 0.52604,0.583334 0.74479,0.911459 0.21875,0.328125 0.40104,0.671875 0.55208,1.036458 0.15105,0.364584 0.26563,0.739584 0.34375,1.125 0.0781,0.385417 0.11459,0.776042 0.11459,1.171875 v 28.000001 c 0,0.395834 -0.0365,0.786459 -0.11459,1.171876 -0.0781,0.385416 -0.1927,0.760416 -0.34375,1.125 -0.15104,0.364583 -0.33333,0.708333 -0.55208,1.036458 -0.21875,0.328125 -0.46875,0.630208 -0.74479,0.911458 -0.28125,0.276042 -0.58333,0.526042 -0.91146,0.744792 -0.32812,0.21875 -0.67187,0.401042 -1.03646,0.552083 -0.36458,0.151042 -0.73958,0.265625 -1.125,0.34375 -0.38541,0.07813 -0.77604,0.114584 -1.17187,0.114584 h -68 c -0.39584,0 -0.78646,-0.03646 -1.17188,-0.114584 -0.38542,-0.07813 -0.76042,-0.192708 -1.125,-0.34375 -0.36458,-0.151041 -0.70833,-0.333333 -1.03646,-0.552083 -0.32812,-0.21875 -0.63021,-0.46875 -0.91146,-0.744792 -0.27604,-0.28125 -0.52604,-0.583333 -0.74479,-0.911458 -0.21875,-0.328125 -0.40104,-0.671875 -0.55208,-1.036458 -0.15104,-0.364584 -0.26563,-0.739584 -0.34375,-1.125 -0.0781,-0.385417 -0.11458,-0.776042 -0.11458,-1.171876 V 7 c 0,-0.395833 0.0365,-0.786458 0.11458,-1.171875 0.0781,-0.385416 0.19271,-0.760416 0.34375,-1.125 0.15104,-0.364583 0.33333,-0.708333 0.55208,-1.036458 0.21875,-0.328125 0.46875,-0.630209 0.74479,-0.911459 0.28125,-0.276041 0.58334,-0.526041 0.91146,-0.744791 0.32813,-0.21875 0.67188,-0.401042 1.03646,-0.552084 0.36458,-0.151041 0.73958,-0.265625 1.125,-0.34375 C 116.21355,1.036458 116.60417,1 117.00001,1 Z m 0,0"
       transform="matrix(0.75,0,0,0.75,0.375,0.375)"
       id="path44" />
    <path
       style="fill:#000000;fill-opacity:1;fill-rule:nonzero;stroke:none"
       d="m 101.21094,19.433594 c 0,0.175781 0.16015,0.273437 0.48828,0.304687 0.125,0 0.1875,0.03906 0.1875,0.117188 0,0.0078 -0.004,0.05469 -0.0195,0.140625 -0.0234,0.101562 -0.043,0.164062 -0.0625,0.195312 -0.0234,0.02734 -0.0703,0.04297 -0.14063,0.04297 -0.0117,0 -0.0547,0 -0.125,0 -0.0703,0 -0.1914,-0.0039 -0.35937,-0.01172 -0.17188,-0.0078 -0.39844,-0.01172 -0.67969,-0.01172 -0.5,0 -0.820312,0.0078 -0.964844,0.02344 h -0.08203 c -0.05078,-0.05078 -0.07422,-0.08984 -0.07422,-0.121094 0.01172,-0.191406 0.05859,-0.320312 0.136719,-0.375 h 0.148437 c 0.492188,-0.02344 0.855468,-0.203125 1.078128,-0.539062 0.043,-0.04297 0.68359,-1.140625 1.91797,-3.292969 1.23828,-2.152344 1.86718,-3.242188 1.88672,-3.269531 0.0508,-0.08594 0.13281,-0.128907 0.2539,-0.128907 h 0.26563 c 0.043,0.0625 0.0625,0.09766 0.0625,0.105469 l 0.29687,3.488281 c 0.19922,2.324219 0.30469,3.496094 0.31641,3.515626 0.0352,0.08203 0.26562,0.121093 0.6914,0.121093 0.17579,0 0.26172,0.03516 0.26172,0.105469 0,0.01563 -0.008,0.06641 -0.0312,0.152344 -0.0195,0.109375 -0.0391,0.171875 -0.0508,0.195312 -0.0156,0.01953 -0.0664,0.03516 -0.14844,0.04297 -0.0234,0 -0.0703,0 -0.14843,0 -0.0781,0 -0.21485,-0.0039 -0.41407,-0.01172 -0.19921,-0.0078 -0.45703,-0.01172 -0.77343,-0.01172 -0.66407,0 -1.09766,0.0078 -1.30078,0.02344 h -0.12891 c -0.043,-0.04297 -0.0625,-0.07813 -0.0625,-0.09766 0,-0.02344 0.008,-0.08594 0.0195,-0.195313 0.0273,-0.09375 0.0508,-0.148437 0.0625,-0.171875 l 0.043,-0.03125 h 0.21484 c 0.37891,-0.02344 0.60547,-0.08203 0.67578,-0.183593 l -0.125,-1.621094 h -2.52343 l -0.35938,0.628906 c -0.28906,0.496094 -0.43359,0.785156 -0.43359,0.871094 z m 3.26172,-2.007813 c 0,-0.07813 -0.043,-0.636719 -0.12891,-1.683593 -0.082,-1.042969 -0.13281,-1.566407 -0.14844,-1.574219 l -0.28515,0.464843 c -0.11328,0.195313 -0.33594,0.578126 -0.66797,1.15625 l -0.95313,1.636719 1.09375,0.01172 c 0.72657,0 1.08985,-0.0039 1.08985,-0.01172 z m 0,0"
       id="path46" />
    <g
       clip-path="url(#clip2)"
       clip-rule="nonzero"
       id="g50">
      <path
         style="fill:none;stroke:#000000;stroke-width:11.1191;stroke-linecap:butt;stroke-linejoin:miter;stroke-miterlimit:4;stroke-opacity:0.0431"
         d="m 208.07611,74.135466 c 0,-16.287685 15.11991,-25.336398 46.09728,-28.231987 11.80091,0 17.70136,-3.619485 17.70136,-10.858456 0,-0.723897 -0.36878,-5.06728 -1.84389,-13.030148 -2.21267,-9.410662 -4.05656,-15.201839 -5.90045,-18.097428 -2.21267,-2.53364 -6.63801,-3.9814338 -13.27602,-3.9814338 -1.10633,0 -5.1629,0 -11.8009,0 -6.63801,0 -18.07014,0.3619488 -33.9276,1.0858458 -16.22625,0.723897 -37.61539,1.085846 -64.16742,1.085846 -47.203616,0 -77.443433,-0.723898 -91.088229,-2.1716918 H 42.125898 C 37.33178,4.641344 35.119111,8.26083 35.119111,11.156418 36.225446,28.891897 40.650785,40.836199 48.02635,45.903479 h 14.013574 c 46.466056,2.171691 80.762436,18.821325 101.782796,49.9489 4.05656,3.981434 64.5362,105.688981 181.07013,305.122631 116.9027,199.43365 176.276,300.41729 178.11989,302.95093 4.79412,7.96287 12.53846,11.94431 23.97059,11.94431 h 25.07692 c 4.05656,-5.79118 5.90045,-9.04872 5.90045,-9.77261 l 28.02715,-323.22006 c 18.80769,-215.35939 28.76471,-323.943953 29.87104,-325.753696 3.319,-7.600919 25.07692,-11.220405 65.27375,-11.220405 16.59502,0 24.70814,-3.257537 24.70814,-9.772611 0,-1.447794 -0.73755,-6.153125 -2.95022,-14.115993 -1.84389,-10.13456 -3.68778,-15.925736 -4.79412,-18.097428 -1.47511,-1.809742 -6.26923,-3.257537 -14.01357,-3.9814338 -2.21267,0 -6.63801,0 -14.01358,0 -7.37556,0 -20.2828,0.3619488 -39.09049,1.0858458 -18.80769,0.723897 -43.14706,1.085846 -73.0181,1.085846 -62.6923,0 -103.62669,-0.723898 -122.80315,-2.1716918 h -12.16969 c -4.05656,3.9814338 -5.90045,7.2389708 -5.90045,9.0487138 0,2.171691 0.73756,7.962868 1.84389,18.097428 2.58145,8.686765 4.79412,13.754044 5.90045,15.925736 l 4.05656,2.895588 h 20.28281 c 35.77149,2.171691 57.16063,7.60092 63.79864,17.011582 L 521.16885,213.12371 H 282.9381 L 249.0105,154.84999 C 221.72091,108.88253 208.07611,82.098334 208.07611,74.135466 Z M 516.00596,260.17702 c 0,7.23897 -4.05656,58.99762 -12.16969,155.99983 -7.74434,96.64026 -12.53846,145.14136 -14.01357,145.86526 L 462.90189,518.97023 C 452.20732,500.87281 431.18696,465.40185 399.84081,411.83346 l -89.9819,-151.65644 103.25791,-1.08584 c 68.59276,0 102.88914,0.36194 102.88914,1.08584 z m 0,0"
         transform="matrix(0.0105924,0,0,-0.0107923,99.00691,20.233684)"
         id="path48" />
    </g>
    <path
       style="fill:#000000;fill-opacity:1;fill-rule:nonzero;stroke:#000000;stroke-width:15.7271;stroke-linecap:butt;stroke-linejoin:miter;stroke-miterlimit:4;stroke-opacity:0.0314"
       d="m 120.74635,646.86898 c 0,6.65534 1.56483,14.33459 4.17288,23.03774 2.60805,8.70315 6.78093,13.31069 11.99703,13.31069 0.52161,0 24.51567,1.53585 71.98218,4.60755 47.46651,3.58365 71.98218,5.63145 73.0254,6.1434 7.82415,0 11.99703,-2.55975 11.99703,-8.1912 0,-4.60754 -16.69152,-74.23272 -50.07456,-208.87552 -33.38304,-132.08306 -50.07456,-200.17238 -50.07456,-204.77993 13.04025,6.65535 22.42923,12.79874 29.21016,18.94214 16.16991,11.77485 39.12075,32.76479 68.85252,62.96983 30.25338,30.20504 53.72583,50.17108 70.41735,60.92203 26.60211,17.91824 51.63939,27.13334 75.63344,27.13334 20.3428,0 35.99109,-6.65535 46.9449,-18.94214 11.47542,-12.79875 17.73474,-30.71699 18.25635,-54.26669 0,-16.38239 -2.60804,-30.71699 -7.30254,-41.97988 -4.69449,-11.2629 -10.95381,-19.45409 -18.77796,-25.08554 -7.82415,-5.1195 -15.12669,-8.70315 -20.8644,-10.75095 -6.25932,-2.0478 -11.99703,-3.0717 -18.25635,-3.0717 -13.04025,0 -23.99405,3.58365 -31.8182,11.2629 -7.82415,7.1673 -11.99703,16.89434 -11.99703,28.66919 0,16.89434 5.2161,30.20504 16.16991,40.95598 10.4322,10.75095 20.86439,17.91825 31.8182,20.98995 l 16.16992,3.0717 c -8.34577,8.19119 -16.16992,12.28679 -23.99407,12.28679 h -4.17287 c -21.38601,-2.0478 -42.25041,-10.75094 -63.11481,-25.08554 -20.8644,-14.84654 -44.85846,-36.34844 -73.0254,-63.99373 -28.16694,-28.15724 -50.07456,-48.63523 -65.72286,-60.92203 1.04322,-1.0239 6.25932,-2.0478 14.60508,-3.0717 8.86737,-1.53584 16.69152,-3.58364 23.99406,-6.14339 7.30254,-2.55975 16.16991,-5.1195 26.0805,-8.1912 9.91059,-2.55975 19.29957,-7.1673 27.12372,-13.82265 7.82415,-6.65534 15.12669,-12.79874 21.90762,-17.91824 6.78093,-5.63145 12.51864,-14.33459 17.21313,-26.10944 4.69449,-11.77485 6.78093,-23.03774 5.73771,-32.76479 0,-11.77484 -1.56483,-25.08554 -4.69449,-40.95598 -3.65127,-16.382398 -5.73771,-29.693094 -6.25932,-40.44404 0,-26.621391 8.86737,-39.932086 27.12372,-39.932086 31.81821,0 57.8987,39.932086 77.71988,119.284306 1.56483,5.1195 8.34577,7.67925 20.3428,7.67925 h 3.65127 c 10.9538,0 16.1699,-3.0717 16.1699,-8.70315 0,-3.58365 -1.04321,-8.19119 -3.12966,-14.33459 -27.12372,-93.68682 -66.24447,-140.786203 -117.88385,-140.786203 -29.73177,0 -54.24744,8.703147 -73.0254,26.109441 -18.77796,17.406294 -27.64533,41.979885 -27.64533,74.744674 0,12.286798 0.52161,22.525788 2.60805,31.228938 2.08644,8.70315 3.12966,16.38239 3.12966,24.06164 0,14.3346 -4.69449,27.13334 -14.08347,37.88429 -9.38898,10.75094 -20.8644,18.43019 -34.94787,23.03774 -14.08347,4.60755 -25.03728,8.1912 -33.90465,10.75095 -8.86737,3.0717 -14.60508,3.58365 -18.25635,3.0717 h -1.56483 c -8.34576,-28.15724 -15.12669,-54.77864 -21.38601,-80.88808 -5.73771,-26.10944 -10.4322,-45.56353 -14.08347,-57.850325 -3.12966,-12.798746 -6.25932,-25.085542 -8.86737,-37.372337 -2.60805,-11.774846 -4.69449,-19.966043 -6.78093,-23.549692 -2.08644,-4.095599 -4.17288,-8.703147 -7.30254,-13.310695 -2.60805,-4.607549 -6.25932,-7.679248 -10.95381,-8.703147 -8.34576,-6.143398 -17.734741,-9.215097 -27.645331,-9.215097 -11.47542,0 -20.34279,3.071699 -26.0805,10.238996 -6.25932,6.655348 -8.86737,12.286796 -8.86737,16.894344 0,6.655348 11.99703,59.89813 36.5127,159.728343 25.037281,100.34217 49.031341,198.63653 73.025401,294.8831 l 37.03431,145.39375 c 1.04322,8.70315 -1.56483,13.82264 -6.78093,15.87044 -5.2161,2.0478 -18.25635,3.58365 -39.12075,5.1195 h -4.69449 c -6.78093,0 -11.47542,0 -13.04025,0 -2.08644,0 -4.69449,1.0239 -7.30254,3.0717 -2.60805,1.53585 -3.65127,4.0956 -3.12966,6.65535 z m 0,0"
       transform="matrix(0.00748883,0,0,-0.00763014,106.95122,15.787265)"
       id="path52" />
    <path
       style="fill:#000000;fill-opacity:1;fill-rule:nonzero;stroke:#000000;stroke-width:15.7271;stroke-linecap:butt;stroke-linejoin:miter;stroke-miterlimit:4;stroke-opacity:0.0314"
       d="m 78.031703,35.088941 c 0,0 0,8.191197 0,25.085541 0,16.382394 5.2161,30.716989 16.16991,43.003788 10.432197,11.77484 25.037277,17.91824 42.772017,17.91824 18.77796,0 35.46948,-8.1912 50.07456,-25.08554 14.60508,-16.894345 22.42923,-46.075484 22.95084,-88.05537 0,-23.037742 -3.12966,-46.075484 -8.86737,-68.089326 -6.25932,-22.013842 -13.04025,-40.955984 -21.38601,-56.826434 -7.82415,-15.87044 -16.16991,-29.69309 -25.55889,-40.95598 -9.38898,-11.2629 -17.73474,-20.47799 -23.99406,-27.13334 -6.78093,-6.65535 -10.95381,-9.72705 -13.04025,-8.70315 -2.60805,0 -7.30254,2.55975 -13.04025,8.70315 -6.259318,6.1434 -8.867368,10.23899 -8.867368,12.79874 0,3.0717 3.65127,8.1912 10.953808,16.3824 7.30254,7.67925 15.6483,17.91824 25.03728,29.69309 8.86737,12.28679 17.73474,28.669187 25.55889,50.17108 8.34576,21.501892 13.56186,45.563534 16.16991,73.208824 V 8.9795 L 171.9215,7.9556 c -1.04322,-0.51195 -3.12966,-1.535849 -4.69449,-2.047799 -2.08644,-0.51195 -4.17288,-1.535849 -6.25932,-3.071699 -2.08644,-1.0239 -5.2161,-2.047799 -8.86737,-2.047799 -4.17288,0 -8.34576,0 -11.99703,-1.0239 -18.25635,0 -32.86143,6.143398 -44.336848,17.406294 z m 0,0"
       transform="matrix(0.00748883,0,0,-0.00763014,110.84923,15.787265)"
       id="path54" />
    <path
       style="fill:#000000;fill-opacity:1;fill-rule:nonzero;stroke:#000000;stroke-width:15.7271;stroke-linecap:butt;stroke-linejoin:miter;stroke-miterlimit:4;stroke-opacity:0.0314"
       d="m 121.22267,646.86898 c 0,6.65534 1.04322,14.33459 3.65127,23.03774 2.60805,8.70315 6.78093,13.31069 11.99703,13.31069 1.04322,0 25.03728,1.53585 71.98218,4.60755 47.46651,3.58365 71.98218,5.63145 73.0254,6.1434 8.34576,0 11.99703,-2.55975 11.99703,-8.1912 0,-4.60754 -16.69152,-74.23272 -50.07456,-208.87552 -33.38304,-132.08306 -49.55295,-200.17238 -49.55295,-204.77993 12.51864,6.65535 21.90762,12.79874 28.68855,18.94214 16.16991,11.77485 39.12075,32.76479 68.85252,62.96983 30.25338,30.20504 53.72583,50.17108 70.41735,60.92203 26.60211,17.91824 51.63939,27.13334 75.63345,27.13334 20.34279,0 35.99109,-6.65535 46.9449,-18.94214 11.47542,-12.79875 17.73474,-30.71699 18.25635,-54.26669 0,-16.38239 -2.60805,-30.71699 -6.78093,-41.97988 -4.69449,-11.2629 -11.47542,-19.45409 -19.29957,-25.08554 -7.82415,-5.1195 -15.12669,-8.70315 -20.8644,-10.75095 -6.25932,-2.0478 -11.99703,-3.0717 -18.25635,-3.0717 -13.04025,0 -23.99406,3.58365 -31.81821,11.2629 -7.82415,7.1673 -11.99703,16.89434 -11.99703,28.66919 0,16.89434 5.2161,30.20504 16.16991,40.95598 10.4322,10.75095 21.38601,17.91825 31.81821,20.98995 l 16.16991,3.0717 c -8.34576,8.19119 -16.16991,12.28679 -23.99406,12.28679 h -4.17288 c -21.38601,-2.0478 -42.25041,-10.75094 -63.11481,-25.08554 -20.34279,-14.84654 -44.85846,-36.34844 -73.0254,-63.99373 -27.64533,-28.15724 -50.07456,-48.63523 -65.72286,-60.92203 1.04322,-1.0239 6.25932,-2.0478 14.60508,-3.0717 8.86737,-1.53584 16.69152,-3.58364 23.99406,-6.14339 7.82415,-2.55975 16.16991,-5.1195 26.0805,-8.1912 9.91059,-2.55975 19.29957,-7.1673 27.12372,-13.82265 7.82415,-6.65534 15.12669,-12.79874 21.90762,-17.91824 6.78093,-5.63145 12.51864,-14.33459 17.21313,-26.10944 4.69449,-11.77485 6.78093,-23.03774 5.73771,-32.76479 0,-11.77484 -1.56483,-25.08554 -4.69449,-40.95598 -3.65127,-16.382398 -5.2161,-29.693094 -6.25932,-40.44404 0,-26.621391 9.38898,-39.932086 27.12372,-39.932086 31.81821,0 57.89871,39.932086 78.2415,119.284306 1.04322,5.1195 7.82415,7.67925 19.82118,7.67925 h 4.17288 c 10.4322,0 15.6483,-3.0717 15.6483,-8.70315 0,-3.58365 -1.04322,-8.19119 -2.60805,-14.33459 -27.64533,-93.68682 -66.76608,-140.786203 -118.40547,-140.786203 -29.73177,0 -54.24744,8.703147 -73.0254,26.109441 -18.25635,17.406294 -27.64533,41.979885 -27.64533,74.744674 0,12.286798 1.04322,22.525788 2.60805,31.228938 2.08644,8.70315 3.12966,16.38239 3.12966,24.06164 0,14.3346 -4.69449,27.13334 -14.08347,37.88429 -9.38898,10.75094 -20.8644,18.43019 -34.94787,23.03774 -14.08347,4.60755 -25.03728,8.1912 -33.90465,10.75095 -8.86737,3.0717 -14.60508,3.58365 -17.73474,3.0717 h -2.08644 c -8.34576,-28.15724 -15.12669,-54.77864 -21.38601,-80.88808 -5.73771,-26.10944 -10.4322,-45.56353 -13.56186,-57.850325 -3.65127,-12.798746 -6.78093,-25.085542 -9.38898,-37.372337 -2.60805,-11.774846 -4.69449,-19.966043 -6.78093,-23.549692 -2.08644,-4.095599 -4.17288,-8.703147 -7.30254,-13.310695 -2.60805,-4.607549 -6.25932,-7.679248 -10.95381,-8.703147 -8.34576,-6.143398 -17.734739,-9.215097 -27.645329,-9.215097 -11.47542,0 -20.342789,3.071699 -26.080499,10.238996 -6.25932,6.655348 -8.86737,12.286796 -8.86737,16.894344 0,6.655348 11.99703,59.89813 37.034309,159.728343 24.515669,100.34217 48.509729,198.63653 73.025399,294.8831 l 36.5127,145.39375 c 1.04322,8.70315 -1.56483,13.82264 -6.78093,15.87044 -5.2161,2.0478 -18.25635,3.58365 -39.12075,5.1195 h -4.69449 c -6.78093,0 -10.95381,0 -13.04025,0 -2.08644,0 -4.69449,1.0239 -7.30254,3.0717 -2.60805,1.53585 -3.65127,4.0956 -2.60805,6.65535 z m 0,0"
       transform="matrix(0.00748883,0,0,-0.00763014,112.93593,15.787265)"
       id="path56" />
    <path
       style="fill:#000000;fill-opacity:1;fill-rule:nonzero;stroke:#000000;stroke-width:15.7271;stroke-linecap:butt;stroke-linejoin:miter;stroke-miterlimit:4;stroke-opacity:0.0314"
       d="m 56.22968,236.79717 c 0,0 0,4.60755 0,13.3107 0,8.70314 4.69449,15.35849 13.56186,19.96604 h 299.40414 v 150.0013 l 1.04322,150.00129 c 6.25932,8.70315 12.51864,12.79875 18.77796,12.79875 8.86737,0 15.12669,-5.1195 19.82118,-14.84655 V 270.07391 h 298.36091 c 9.91059,-5.63145 14.60508,-12.2868 14.60508,-19.96604 0,-8.1912 -4.69449,-14.84655 -14.60508,-19.96605 H 408.83804 V -67.812973 c -5.2161,-9.727047 -10.95381,-14.334595 -17.73474,-14.334595 h -4.17288 c -7.82415,0 -14.08347,4.607548 -17.73474,14.334595 V 230.14182 H 69.79154 c -8.86737,4.60755 -13.56186,11.2629 -13.56186,19.96605 z m 0,0"
       transform="matrix(0.00748883,0,0,-0.00763014,116.84453,15.787265)"
       id="path58" />
    <path
       style="fill:#000000;fill-opacity:1;fill-rule:nonzero;stroke:#000000;stroke-width:15.7271;stroke-linecap:butt;stroke-linejoin:miter;stroke-miterlimit:4;stroke-opacity:0.0314"
       d="m 213.01986,577.75575 -13.04025,-4.60755 c -9.38898,-3.58365 -22.42923,-6.65534 -40.16397,-10.23899 -17.21313,-3.0717 -36.5127,-5.63145 -57.89871,-6.65535 H 83.138973 v 45.56353 h 18.777957 c 31.2966,1.53585 60.50676,6.65535 87.10887,15.3585 26.60211,8.70315 45.38007,16.38239 55.81227,24.06164 10.95381,7.1673 20.34279,14.33459 28.16694,22.01384 1.56483,1.53585 5.2161,2.55975 11.99703,2.55975 5.73771,0 11.47542,-2.0478 17.21313,-5.63145 V 361.20098 l 1.04322,-300.002598 c 4.17288,-5.119499 8.34576,-7.679248 11.99703,-9.215097 3.12966,-1.53585 10.95381,-2.559749 23.99406,-4.095599 12.51864,-1.023899 32.86143,-2.047799 61.54998,-2.047799 h 26.0805 V -0.235597 h -10.95381 c -14.08347,2.047799 -66.76608,3.071699 -159.09105,3.071699 -90.76014,0 -142.92114,-1.0239 -157.004607,-3.071699 h -11.99703 v 46.075484 h 26.080497 c 14.60508,0 27.64533,0 38.07753,0 10.4322,0 18.77796,0.51195 25.03728,1.0239 5.73771,1.023899 11.47542,2.047799 16.16991,3.071699 4.69449,1.535849 7.30254,2.047799 7.82415,2.047799 0.52161,0 2.60805,1.535849 5.73771,5.119498 3.65127,3.071699 5.73771,4.607549 6.25932,4.095599 z m 0,0"
       transform="matrix(0.00748883,0,0,-0.00763014,122.67036,15.787265)"
       id="path60" />
    <path
       style="fill:#ffffff;fill-opacity:1;fill-rule:nonzero;stroke:#000000;stroke-width:1;stroke-linecap:butt;stroke-linejoin:miter;stroke-miterlimit:10;stroke-opacity:1"
       d="m 201.73958,10.999991 h 18.52084 c 0.25,0.02083 0.46875,0.229166 0.59895,0.5625 0.13021,0.328125 0.14063,0.739583 0.0312,1.078125 l -9.46875,18.078126 c -0.25,0.28125 -0.59375,0.28125 -0.84375,0 l -9.46875,-18.078126 c -0.10937,-0.338542 -0.099,-0.75 0.0312,-1.078125 0.13021,-0.333334 0.34896,-0.541667 0.59896,-0.5625 z m 0,0"
       transform="matrix(0,-0.75,-0.75,0,174.37499,174.37499)"
       id="path62" />
  </g>
</svg>
